<svg version="1.2" xmlns="http://www.w3.org/2000/svg" viewBox="0 0 356 355" width="356" height="355">
	<title>search-svg</title>
	<style>
		.s0 { fill: #c4d7e5 } 
		.s1 { fill: #70b7e5 } 
		.s2 { fill: #92c5eb } 
		.s3 { fill: #4c9cd6 } 
		.s4 { fill: #b0c9db } 
		.s5 { fill: #e2e7f0 } 
	</style>
	<path id="Layer" fill-rule="evenodd" class="s0" d="m349.1 174.5c0 96.6-78 174.6-174.6 174.6c-96.5 0-174.5-78-174.5-174.6c0-96.5 78-174.5 174.5-174.5c96.6 0 174.6 78 174.6 174.5zm-34.9 0c0-76.8-62.9-139.6-139.7-139.6c-76.8 0-139.6 62.8-139.6 139.6c0 76.8 62.8 139.7 139.6 139.7c76.8 0 139.7-62.9 139.7-139.7z" />
	<path id="Layer" class="s1" d="m174.5 314.2c-77.2 0-139.6-62.4-139.6-139.7c0-77.2 62.4-139.6 139.6-139.6c77.3 0 139.7 62.4 139.7 139.6c0 77.3-62.4 139.7-139.7 139.7z" />
	<path id="Layer" class="s2" d="m107.1 190.8c-2.4 19.8-30.3 22.1-33.8 2.4c-2.3-10.5-3.5-23.3-1.2-34.9c5.9-44.3 41.9-80.3 87.3-87.3c11.7-1.2 23.3-1.2 34.9 1.1c18.6 3.5 17.5 31.5-2.3 33.8h-1.2c-44.2 5.8-79.1 40.7-84.9 84.9c0 0 0 1.2 1.2 0z" />
	<path id="Layer" class="s3" d="m81.5 279.3c-28-25.6-46.6-62.9-46.6-104.8c0-76.8 62.8-139.6 139.6-139.6c41.9 0 79.2 17.5 104.8 46.6c-25.6-21-57-35-93.1-35c-76.8 0-139.7 62.9-139.7 139.7c0 36.1 14 67.5 35 93.1z" />
	<path id="Layer" class="s4" d="m174.5 349.1c96.6 0 174.6-78 174.6-174.6c-5.8 0-11.6 4.7-11.6 11.7c-2.4 39.5-19.8 75.6-46.6 102.4c-26.8 27.9-64 45.4-104.7 48.9c-7 0-11.7 5.8-11.7 11.6z" />
	<path id="Layer" class="s5" d="m174.5 0c-96.5 0-174.5 78-174.5 174.5c5.8 0 11.6-4.6 11.6-11.6c2.4-38.4 18.7-73.3 43.1-98.9c27.9-29.1 66.3-48.9 108.2-52.4c7 0 11.6-5.8 11.6-11.6z" />
	<g id="Layer">
	</g>
	<g id="Layer">
	</g>
	<g id="Layer">
	</g>
	<g id="Layer">
	</g>
	<g id="Layer">
	</g>
	<g id="Layer">
	</g>
	<g id="Layer">
	</g>
	<g id="Layer">
	</g>
	<g id="Layer">
	</g>
	<g id="Layer">
	</g>
	<g id="Layer">
	</g>
	<g id="Layer">
	</g>
	<g id="Layer">
	</g>
	<g id="Layer">
	</g>
	<g id="Layer">
	</g>
</svg>